<?xml version="1.0" standalone="no"?>
<!DOCTYPE svg PUBLIC "-//W3C//DTD SVG 20010904//EN"
 "http://www.w3.org/TR/2001/REC-SVG-20010904/DTD/svg10.dtd">
<svg version="1.0" xmlns="http://www.w3.org/2000/svg"
 width="1667.000000pt" height="1667.000000pt" viewBox="0 0 1667.000000 1667.000000"
 preserveAspectRatio="xMidYMid meet">

<g transform="translate(0.000000,1667.000000) scale(0.100000,-0.100000)"
fill="#000000" stroke="none">
<path d="M7637 15669 c-191 -25 -323 -106 -490 -304 -46 -55 -116 -128 -155
-163 -99 -88 -121 -135 -132 -289 -10 -143 -28 -216 -85 -348 -78 -181 -79
-247 -3 -401 37 -77 40 -89 35 -141 -3 -32 -18 -98 -32 -148 -47 -156 -32
-248 49 -310 61 -46 80 -102 84 -245 4 -151 8 -166 30 -125 13 23 17 56 17
145 -1 138 -15 178 -98 268 -30 33 -58 73 -62 90 -4 20 6 74 31 169 45 170 43
222 -9 322 -71 135 -70 183 8 365 59 138 73 196 84 337 12 160 40 219 144 300
29 23 69 62 90 88 168 203 262 275 412 318 77 22 499 35 592 17 114 -21 196
-72 277 -173 27 -34 85 -89 129 -124 125 -96 143 -114 182 -173 54 -81 82
-158 111 -306 14 -73 33 -146 41 -162 25 -48 95 -117 164 -162 113 -72 135
-114 179 -331 58 -286 107 -398 220 -506 102 -98 102 -98 207 -386 22 -60 70
-111 149 -157 165 -97 232 -244 220 -484 -3 -63 -9 -143 -12 -177 -9 -88 10
-82 32 10 26 108 31 338 9 413 -34 118 -91 194 -200 267 -120 79 -142 110
-190 257 -45 139 -80 197 -165 280 -118 115 -162 214 -219 496 -44 214 -86
289 -201 362 -117 74 -153 125 -175 254 -45 255 -124 405 -263 500 -26 17
-103 89 -172 158 -135 137 -202 180 -309 200 -64 12 -428 11 -524 -1z"/>
<path d="M7627 15333 c-14 -13 -6 -21 39 -38 62 -24 156 -118 230 -229 98
-150 206 -239 352 -287 59 -20 112 -20 112 0 0 4 -33 23 -72 41 -179 82 -257
146 -349 285 -67 101 -141 176 -207 209 -50 25 -92 33 -105 19z"/>
<path d="M8080 15237 c0 -24 75 -131 111 -157 19 -14 68 -45 109 -68 41 -24
111 -74 155 -112 44 -39 83 -70 88 -70 33 0 -50 120 -119 171 -27 20 -76 50
-109 67 -74 37 -125 77 -173 136 -37 45 -62 59 -62 33z"/>
<path d="M7370 15215 c7 -8 18 -15 24 -15 27 0 147 -66 215 -118 89 -68 160
-151 220 -258 87 -156 150 -211 273 -239 38 -8 81 -23 94 -32 38 -24 68 -84
119 -238 25 -77 58 -166 73 -199 l26 -59 -44 -85 c-48 -93 -141 -201 -242
-279 -197 -151 -416 -140 -574 29 -80 87 -255 321 -288 385 -64 128 -104 351
-92 524 3 53 15 149 26 214 12 65 20 139 18 164 l-3 46 -23 -74 c-64 -201 -85
-425 -58 -607 31 -211 72 -299 242 -519 l116 -150 -4 -120 c-4 -105 -8 -126
-30 -170 -50 -95 -146 -173 -408 -330 -265 -159 -331 -206 -431 -305 -134
-133 -213 -264 -246 -411 -14 -59 -17 -123 -17 -309 0 -346 15 -439 163 -1008
44 -169 85 -343 90 -387 20 -157 32 -494 28 -755 l-5 -265 -69 -68 c-117 -118
-278 -231 -496 -351 -95 -52 -182 -128 -217 -189 -51 -90 -37 -200 34 -266 14
-14 26 -33 26 -42 0 -12 -43 -50 -113 -103 -165 -123 -260 -215 -296 -287 -87
-174 -61 -337 83 -511 31 -37 56 -69 56 -71 0 -2 -37 -33 -82 -68 -224 -173
-388 -338 -454 -455 -58 -102 -52 -162 32 -367 62 -150 62 -176 -5 -335 -28
-68 -54 -142 -57 -165 -3 -23 2 -82 10 -131 29 -164 20 -259 -43 -428 -22 -56
-45 -139 -51 -183 -26 -173 -114 -375 -242 -553 -38 -53 -80 -117 -93 -142
-50 -99 -57 -223 -25 -445 53 -367 31 -645 -71 -890 -41 -100 -144 -252 -281
-415 -161 -193 -205 -268 -224 -388 -17 -106 62 -201 205 -246 122 -39 190
-41 301 -13 52 14 116 28 142 31 100 15 242 -19 494 -118 142 -55 274 -86 368
-86 67 0 107 7 215 40 264 79 358 87 518 44 125 -33 317 -37 493 -10 147 23
264 17 378 -19 190 -60 352 -69 721 -38 315 26 466 3 628 -96 157 -95 239
-112 413 -85 164 25 455 23 720 -5 486 -52 829 -33 1082 60 213 77 294 101
443 130 241 46 430 112 514 178 20 16 66 64 101 107 36 42 99 106 140 141 119
102 214 142 340 143 182 1 367 91 413 203 8 18 17 89 21 157 4 69 11 178 17
243 21 229 -14 321 -189 497 -119 119 -160 178 -188 268 -20 62 -64 115 -174
208 -84 70 -130 132 -150 199 -7 22 -15 139 -19 260 -6 198 -9 225 -30 271
-26 59 -65 100 -136 141 l-50 30 2 54 c9 192 9 192 -19 252 -39 83 -81 138
-141 183 -80 60 -174 152 -207 203 -38 60 -58 116 -75 214 -15 84 -62 195
-112 262 -17 22 -70 85 -120 140 -90 101 -214 251 -236 286 -15 24 -37 25 -37
1 0 -45 87 -167 246 -347 147 -166 182 -231 210 -390 27 -153 83 -232 304
-426 99 -87 134 -150 134 -239 0 -36 -4 -94 -8 -130 -7 -59 -6 -68 14 -93 12
-15 43 -39 68 -54 117 -66 128 -96 137 -380 9 -299 25 -340 195 -489 120 -105
132 -119 153 -192 23 -76 87 -165 202 -277 160 -158 186 -232 167 -469 -7 -78
-12 -172 -12 -211 0 -120 -26 -181 -102 -236 -68 -48 -142 -70 -274 -79 -207
-15 -263 -46 -481 -267 -135 -136 -161 -158 -225 -188 -106 -48 -216 -80 -412
-120 -99 -20 -223 -52 -288 -76 -290 -105 -364 -122 -603 -139 -151 -10 -346
-2 -590 25 -193 22 -546 30 -665 16 -262 -32 -304 -26 -455 64 -102 62 -149
80 -253 101 -89 17 -328 19 -473 3 -145 -16 -389 -16 -479 0 -41 7 -118 27
-170 43 -124 38 -224 45 -370 24 -248 -34 -379 -30 -538 15 -129 37 -275 20
-529 -61 -137 -44 -179 -46 -303 -17 -100 24 -183 52 -385 130 -171 67 -378
75 -547 21 -87 -27 -87 -27 -155 -10 -94 22 -187 70 -215 109 -18 25 -23 45
-23 92 1 86 50 180 171 325 279 333 351 459 404 707 33 155 38 417 10 603 -11
80 -24 197 -27 260 -6 148 10 205 94 322 166 230 246 407 277 610 9 58 29 132
50 186 21 52 43 133 53 192 15 91 15 114 3 204 -23 173 -20 197 35 321 37 85
49 125 53 176 5 75 0 94 -62 246 -64 155 -67 186 -27 267 42 86 177 227 366
384 332 275 425 369 425 431 0 23 -6 19 -72 -44 -179 -173 -175 -170 -194
-154 -48 39 -135 174 -155 241 -55 179 16 304 291 518 170 132 281 252 256
278 -4 3 -27 -14 -52 -39 l-45 -44 -39 41 c-121 129 -58 245 220 402 210 120
318 200 466 347 148 147 385 433 438 527 19 35 45 97 58 138 20 66 23 94 22
235 -2 309 -42 500 -209 1000 -199 592 -222 702 -227 1072 l-3 242 25 27 c40
42 303 214 329 214 7 0 11 -31 11 -92 0 -202 107 -503 251 -708 111 -159 287
-304 535 -443 55 -32 108 -57 118 -57 10 0 35 13 55 28 20 16 92 66 161 112
241 161 356 265 485 439 52 71 96 121 106 121 20 0 96 -80 110 -118 6 -15 24
-93 40 -174 16 -80 38 -171 49 -202 27 -71 91 -167 137 -205 33 -27 35 -32 29
-70 -10 -61 -74 -268 -103 -331 -101 -218 -177 -438 -212 -611 -45 -226 -74
-462 -75 -599 -1 -122 1 -139 22 -177 38 -73 85 -109 250 -192 115 -59 186
-103 267 -167 61 -47 182 -134 270 -194 89 -59 246 -178 350 -265 105 -86 253
-203 330 -258 292 -212 321 -273 191 -401 -83 -82 -148 -114 -351 -176 -93
-28 -222 -67 -285 -86 -279 -85 -470 -224 -428 -311 26 -54 65 -66 247 -75
282 -14 368 -33 408 -94 15 -24 15 -29 2 -52 -23 -41 -69 -66 -165 -91 -49
-13 -102 -31 -119 -40 l-30 -16 38 -3 c62 -5 178 17 234 44 71 34 103 74 103
128 0 52 -23 85 -84 121 -58 34 -119 44 -338 55 -191 9 -248 22 -248 54 0 24
100 103 174 140 98 47 191 79 380 131 89 24 205 60 257 79 l96 34 18 -56 c28
-90 67 -161 144 -257 99 -125 107 -153 84 -312 -21 -150 -16 -174 61 -297 58
-93 72 -135 63 -192 -7 -41 -121 -233 -215 -362 -92 -125 -295 -452 -296 -476
-2 -57 50 6 200 240 42 65 115 171 163 235 48 63 114 162 146 219 92 161 88
217 -23 389 -51 78 -58 112 -42 209 30 185 11 258 -99 392 -68 82 -130 199
-138 260 -5 36 -2 40 66 105 104 100 132 175 97 260 -22 51 -82 106 -286 260
-274 206 -328 253 -345 300 -38 104 -101 500 -125 795 -28 342 -21 867 15
1210 9 80 20 189 25 242 15 151 -10 246 -81 317 -36 36 -136 89 -219 116 -99
32 -160 87 -244 218 -41 64 -62 74 -52 26 16 -81 131 -229 208 -267 24 -12 83
-37 132 -57 97 -38 144 -75 179 -140 19 -35 21 -56 21 -155 -1 -63 -8 -164
-17 -225 -42 -286 -49 -1097 -13 -1415 23 -202 53 -407 77 -523 11 -54 19
-100 17 -102 -2 -2 -24 12 -48 32 -25 19 -117 84 -205 143 -88 60 -179 124
-201 144 l-41 35 -7 348 c-8 426 -20 641 -51 978 -26 281 -50 673 -42 682 3 3
27 -2 54 -11 113 -37 188 -29 246 25 31 30 31 30 7 25 -164 -34 -301 5 -414
118 -81 82 -119 168 -156 354 -37 191 -57 238 -124 296 -28 25 -63 56 -78 69
-14 13 -32 44 -38 68 -11 38 -9 53 14 129 30 98 32 138 11 202 -20 57 -64 102
-137 139 -57 29 -88 66 -88 106 0 10 11 50 25 88 13 39 25 83 25 98 0 51 -36
102 -114 161 -106 80 -116 95 -116 175 0 39 -6 76 -15 91 -8 14 -17 31 -21 37
-3 7 6 27 20 43 14 17 42 66 62 108 20 42 38 79 40 81 3 3 26 -15 52 -40 26
-25 80 -71 120 -103 46 -37 83 -75 101 -108 29 -50 38 -79 81 -257 26 -108 49
-141 135 -196 123 -77 210 -183 274 -335 80 -188 219 -410 257 -410 17 0 13 9
-71 160 -30 52 -80 156 -114 230 -33 74 -72 157 -87 183 -38 68 -122 156 -189
197 -120 74 -125 81 -160 238 -45 206 -82 265 -236 383 -130 99 -160 145 -229
354 -56 170 -84 233 -122 272 -35 36 -59 47 -138 63 -101 20 -174 80 -226 183
-81 161 -224 300 -386 377 -70 33 -161 43 -138 15z m927 -1477 c4 -7 6 -44 5
-81 -2 -88 13 -124 79 -178 29 -24 75 -65 102 -91 45 -43 49 -50 44 -85 -2
-21 -14 -65 -26 -97 -40 -107 -8 -178 105 -236 88 -45 114 -82 114 -160 0 -32
-9 -83 -21 -116 -22 -64 -21 -126 2 -201 12 -41 12 -44 -12 -70 -14 -16 -42
-55 -63 -87 -46 -71 -185 -217 -281 -296 -38 -31 -128 -96 -200 -144 -71 -48
-142 -96 -157 -108 l-27 -21 -118 67 c-65 38 -154 94 -198 125 -103 73 -237
207 -298 299 -93 140 -187 364 -222 532 -16 76 -23 240 -10 259 3 7 59 46 123
88 131 85 243 193 275 263 16 33 22 72 25 148 4 89 12 122 24 94 8 -22 99 -75
161 -94 86 -26 202 -21 288 11 64 24 177 101 228 155 38 39 46 42 58 24z
m-1644 -1265 c3 -198 9 -269 26 -353 37 -186 118 -469 196 -690 158 -446 206
-676 207 -985 0 -124 -2 -149 -26 -220 -30 -95 -98 -203 -187 -300 -35 -39
-95 -112 -133 -163 -38 -50 -72 -90 -74 -87 -2 2 2 28 9 57 19 71 18 729 0
868 -19 142 -55 305 -127 573 -108 403 -137 596 -138 897 -1 216 17 318 75
437 35 70 141 212 160 213 4 0 9 -111 12 -247z m2548 -1051 c-1 -114 2 -247 8
-297 31 -267 52 -599 61 -945 5 -212 12 -418 16 -457 4 -46 3 -73 -4 -73 -5 0
-40 21 -78 46 -38 26 -121 71 -184 101 -223 105 -243 155 -205 503 42 374 101
608 236 921 58 135 97 256 119 373 9 43 15 55 23 47 8 -8 10 -75 8 -219z"/>
<path d="M8400 15214 c0 -10 182 -214 191 -214 37 0 -47 141 -113 189 -38 28
-78 41 -78 25z"/>
<path d="M8589 14465 c-11 -10 10 -143 31 -197 23 -63 103 -158 152 -184 42
-22 107 -83 125 -118 9 -17 31 -105 49 -196 28 -138 40 -179 77 -250 24 -48
50 -86 60 -88 24 -5 22 11 -18 117 -21 53 -45 145 -56 215 -12 66 -29 144 -39
173 -25 73 -77 140 -130 171 -117 67 -156 118 -201 264 -27 89 -37 107 -50 93z"/>
<path d="M6979 14419 c-10 -18 -14 -66 -14 -184 l1 -160 39 -100 c34 -89 39
-110 39 -190 1 -74 -3 -98 -22 -134 -25 -52 -28 -71 -8 -71 19 0 72 85 86 140
16 60 6 157 -26 245 -42 115 -53 173 -60 315 -7 151 -14 177 -35 139z"/>
<path d="M9150 13901 c0 -5 11 -33 25 -62 13 -30 31 -98 40 -151 19 -122 9
-95 130 -343 89 -182 145 -274 145 -238 0 26 -102 287 -144 371 -31 60 -57
131 -75 205 -15 61 -33 123 -41 137 -31 61 -80 110 -80 81z"/>
<path d="M7240 13706 c0 -79 -5 -111 -29 -183 -16 -49 -32 -105 -36 -126 -7
-37 -6 -39 16 -35 20 2 30 18 56 83 47 118 58 194 42 280 -10 52 -19 71 -31
73 -16 3 -18 -6 -18 -92z"/>
<path d="M8770 13199 c0 -6 20 -38 44 -72 98 -139 131 -217 146 -343 5 -46 17
-101 27 -122 10 -20 63 -84 118 -142 56 -58 123 -135 149 -172 50 -72 66 -82
66 -45 0 45 -90 184 -177 271 -95 96 -110 125 -124 238 -12 99 -44 179 -103
262 -65 91 -146 161 -146 125z"/>
<path d="M9560 12979 c0 -5 18 -45 39 -87 53 -105 68 -164 79 -309 8 -104 14
-129 36 -167 31 -54 71 -85 149 -120 32 -14 72 -35 88 -47 36 -25 44 -21 28
14 -8 17 -37 39 -83 63 -139 72 -156 101 -167 279 -9 151 -33 239 -88 317 -33
47 -81 81 -81 57z"/>
<path d="M9560 12237 c0 -7 47 -47 104 -89 57 -41 122 -99 144 -127 74 -93
103 -217 84 -349 -6 -44 -6 -62 2 -59 22 6 49 81 54 149 13 181 -94 346 -290
448 -81 43 -98 47 -98 27z"/>
<path d="M7188 10234 c-37 -11 -15 -20 88 -38 59 -9 148 -30 198 -46 50 -15
118 -34 151 -41 80 -18 311 -16 504 5 213 22 358 21 456 -4 43 -11 80 -18 83
-16 10 11 -12 26 -66 47 -79 31 -271 37 -488 15 -301 -30 -440 -20 -641 44
-95 31 -240 48 -285 34z"/>
<path d="M7142 10123 c-40 -8 -18 -27 49 -44 35 -8 112 -32 172 -52 179 -61
246 -70 446 -64 97 3 250 15 341 27 91 12 242 25 335 29 147 6 166 8 141 19
-73 31 -157 33 -383 6 -263 -30 -547 -41 -652 -25 -41 6 -136 31 -210 56 -139
44 -198 56 -239 48z"/>
<path d="M8970 9539 c0 -25 75 -171 116 -225 22 -29 127 -149 234 -269 107
-119 212 -242 233 -274 40 -59 72 -149 83 -229 14 -105 -40 -191 -133 -210
-54 -12 -89 -7 -218 33 -70 21 -117 29 -210 32 -149 6 -230 -11 -448 -96 -179
-70 -255 -91 -351 -97 -39 -3 -91 -7 -116 -10 -41 -5 -43 -7 -25 -20 13 -10
49 -14 120 -14 123 0 214 21 410 96 77 29 165 59 195 67 139 36 293 29 433
-19 86 -30 187 -40 242 -25 51 14 110 62 135 112 43 83 20 265 -49 384 -33 58
-199 250 -375 433 -67 70 -152 172 -190 227 -82 119 -86 124 -86 104z"/>
<path d="M8100 9188 c-28 -63 -73 -114 -165 -187 -90 -71 -170 -155 -191 -199
-29 -61 -16 -107 68 -234 41 -62 78 -120 82 -128 3 -8 4 13 2 48 -4 62 -18 93
-81 181 -54 74 -19 148 122 261 135 108 201 194 206 265 3 56 -16 53 -43 -7z"/>
<path d="M6075 8957 c-45 -18 -77 -38 -71 -44 3 -3 72 -6 153 -7 205 -3 246
-16 683 -216 258 -118 558 -200 680 -186 76 9 121 27 117 46 -1 9 -11 13 -22
11 -11 -2 -60 -4 -110 -4 -72 0 -117 7 -226 36 -165 43 -258 79 -491 186 -223
103 -341 148 -448 172 -95 21 -219 24 -265 6z"/>
<path d="M6965 8283 c-289 -171 -326 -191 -405 -224 -84 -36 -178 -48 -232
-30 -19 6 -67 41 -107 76 -95 86 -157 117 -246 123 -127 8 -328 -61 -290 -100
3 -3 56 8 118 24 88 23 124 28 167 23 79 -8 152 -46 223 -113 76 -73 114 -93
186 -99 75 -6 186 29 312 101 130 73 427 264 464 298 64 58 -11 27 -190 -79z"/>
<path d="M8825 7878 c-58 -119 -339 -273 -605 -331 -242 -53 -287 -48 -504 54
-364 172 -578 197 -946 111 -106 -25 -214 -44 -273 -48 -106 -6 -121 -19 -51
-42 61 -21 188 -9 349 34 133 36 148 38 300 38 236 1 326 -20 565 -135 81 -38
171 -76 200 -84 170 -45 521 25 733 147 99 56 224 152 248 189 20 31 31 73 23
93 -9 25 -17 19 -39 -26z"/>
<path d="M5591 7314 c-75 -20 -149 -62 -183 -104 -38 -49 -60 -154 -56 -279
l3 -96 17 35 c9 20 24 85 33 144 8 60 22 121 30 136 24 46 72 78 156 105 103
32 181 32 303 0 212 -55 500 -75 606 -42 65 20 131 58 112 65 -7 2 -45 -4 -85
-15 -53 -13 -105 -18 -197 -17 -141 1 -225 13 -390 55 -131 33 -257 38 -349
13z"/>
<path d="M10192 7165 c-42 -18 -104 -83 -234 -242 -111 -136 -185 -209 -253
-249 -51 -30 -182 -64 -245 -64 -65 0 -179 31 -285 78 -250 109 -441 147 -830
162 -313 13 -522 57 -605 127 -24 20 -30 33 -30 65 0 32 -3 39 -17 36 -26 -5
-47 -50 -39 -83 26 -102 248 -178 576 -195 522 -28 670 -57 961 -183 132 -58
226 -74 334 -58 170 25 283 93 396 237 125 160 230 288 272 332 54 54 53 61
-1 37z"/>
<path d="M6914 7118 c-10 -11 -80 -66 -154 -121 -74 -55 -157 -120 -183 -146
-152 -145 -138 -330 38 -507 57 -57 129 -107 265 -184 52 -30 118 -77 147
-105 45 -44 53 -57 53 -88 0 -68 -41 -127 -162 -237 -147 -132 -303 -249 -568
-425 -220 -146 -364 -259 -457 -358 -50 -53 -66 -87 -42 -87 6 0 43 29 81 65
98 93 250 212 368 289 55 36 146 96 203 133 277 182 553 418 601 515 32 65 35
138 7 185 -26 41 -98 98 -202 158 -209 119 -320 219 -359 323 -24 64 -25 101
-4 171 20 68 75 128 198 215 103 73 159 124 187 170 32 53 20 77 -17 34z"/>
<path d="M7160 7039 c0 -33 14 -94 40 -171 50 -151 52 -205 11 -315 -51 -140
-63 -243 -27 -243 9 0 16 17 21 48 4 26 25 94 46 152 61 160 61 195 4 370 -71
220 -95 259 -95 159z"/>
<path d="M8116 6495 c-3 -9 -10 -66 -16 -128 -18 -198 -61 -297 -176 -411 -39
-39 -117 -134 -174 -211 -140 -190 -197 -245 -304 -296 -136 -65 -187 -140
-151 -225 45 -108 178 -182 465 -258 341 -90 668 -121 1160 -111 457 10 534 0
742 -97 97 -45 128 -52 128 -29 0 14 -245 131 -305 146 -114 28 -281 36 -565
29 -496 -12 -870 31 -1240 143 -160 48 -249 92 -299 149 -73 83 -47 135 103
208 109 54 167 109 301 291 46 61 126 157 179 214 149 160 176 231 176 468 0
112 -9 156 -24 118z"/>
<path d="M5206 6275 c-12 -63 23 -215 59 -255 8 -9 27 -45 43 -80 101 -226 91
-427 -35 -701 -59 -131 -20 -115 51 21 80 152 115 323 97 463 -14 103 -35 166
-106 317 -29 63 -63 148 -74 189 -11 41 -22 76 -25 78 -2 2 -7 -12 -10 -32z"/>
<path d="M10224 6029 c-9 -15 12 -35 92 -88 102 -69 200 -103 422 -150 119
-24 205 -48 226 -61 41 -24 70 -58 150 -168 104 -144 154 -183 262 -203 82
-15 152 2 206 51 49 45 34 54 -33 19 -51 -26 -123 -34 -174 -20 -79 21 -126
62 -217 187 -47 65 -99 131 -115 145 -49 46 -110 69 -266 100 -208 41 -295 69
-431 138 -65 34 -118 55 -122 50z"/>
<path d="M9700 5933 c0 -41 34 -143 80 -239 45 -92 119 -196 239 -334 144
-164 184 -239 218 -407 24 -122 24 -391 0 -529 -10 -56 -17 -121 -15 -145 l3
-44 17 31 c49 90 82 433 59 619 -28 229 -65 307 -246 516 -150 173 -250 331
-310 491 -23 62 -45 82 -45 41z"/>
<path d="M11215 4790 c-18 -29 58 -138 211 -305 86 -93 177 -202 204 -242 66
-98 106 -208 130 -355 11 -68 24 -138 29 -156 13 -43 101 -208 157 -293 47
-71 188 -213 207 -206 26 8 14 31 -51 95 -74 73 -129 151 -205 292 -60 111
-73 149 -86 256 -30 247 -98 379 -318 617 -65 71 -148 165 -185 209 -85 103
-84 102 -93 88z"/>
<path d="M6922 4718 c46 -84 145 -169 363 -314 116 -76 230 -159 255 -184 101
-100 123 -228 61 -350 -89 -175 -183 -275 -349 -373 -152 -89 -274 -183 -412
-315 -102 -97 -193 -202 -175 -202 13 0 72 46 216 170 167 144 259 211 414
305 132 79 216 159 296 279 84 127 102 180 97 286 -9 171 -78 243 -443 466
-103 63 -150 99 -227 177 -54 53 -102 97 -108 97 -6 0 -1 -19 12 -42z"/>
<path d="M5670 4399 c-29 -23 -96 -85 -150 -138 -78 -77 -105 -111 -134 -171
-50 -103 -56 -149 -56 -405 0 -255 -7 -303 -55 -402 -36 -73 -106 -152 -257
-290 -65 -58 -85 -93 -54 -93 26 0 251 195 300 261 109 144 126 218 126 560 0
293 11 324 184 513 133 146 166 185 166 196 0 18 -18 10 -70 -31z"/>
<path d="M9246 4390 c6 -42 39 -174 106 -425 57 -213 48 -390 -29 -545 -44
-90 -147 -196 -353 -365 -149 -122 -282 -265 -325 -351 -42 -83 -46 -182 -12
-258 19 -41 31 -56 46 -56 20 0 20 0 0 44 -43 97 -32 189 32 282 53 78 192
216 299 297 58 44 157 133 221 196 96 97 122 130 156 197 77 155 83 362 18
599 -52 190 -122 386 -145 410 l-21 20 7 -45z"/>
<path d="M10549 4165 c31 -160 129 -473 180 -574 59 -115 190 -240 398 -381
343 -233 364 -273 230 -430 -38 -43 -21 -50 37 -16 70 41 110 128 92 199 -15
61 -103 140 -319 286 -225 153 -334 259 -401 392 -18 37 -55 133 -81 215 -75
237 -96 294 -121 323 l-22 26 7 -40z"/>
<path d="M8627 4026 c-3 -8 -11 -52 -17 -98 -45 -341 -155 -464 -635 -715
-105 -55 -256 -140 -335 -190 -255 -158 -414 -243 -568 -304 -42 -17 -84 -37
-92 -46 -13 -14 -10 -15 35 -8 74 10 183 49 294 105 103 51 151 79 391 225 80
49 224 130 320 180 401 208 544 342 606 565 19 69 31 284 16 293 -5 4 -12 0
-15 -7z"/>
<path d="M8325 860 c-4 -7 -2 -17 4 -23 17 -17 13 -24 -20 -31 -17 -3 -28 -10
-25 -15 4 -6 19 -6 39 0 17 5 45 9 60 9 16 0 26 4 22 10 -3 6 -14 10 -24 10
-12 0 -17 7 -17 22 1 24 -27 37 -39 18z"/>
<path d="M8307 776 c-89 -24 -137 -81 -137 -163 l0 -42 46 -7 c86 -13 205 1
273 31 33 15 61 32 61 37 0 19 -40 84 -67 111 -28 26 -81 48 -113 46 -8 0 -37
-6 -63 -13z m21 -74 c27 -35 1 -92 -43 -92 -54 0 -74 83 -26 106 27 14 50 9
69 -14z m160 -8 c4 -30 -21 -48 -47 -34 -21 11 -28 40 -14 54 15 15 58 1 61
-20z"/>
<path d="M8560 773 c0 -5 -4 -15 -10 -23 -7 -12 -12 -12 -28 4 -31 27 -38 0
-9 -34 14 -16 27 -35 29 -41 2 -7 10 -9 16 -5 9 5 9 13 2 26 -11 20 -4 50 11
50 5 0 9 7 9 15 0 15 -20 22 -20 8z"/>
<path d="M6012 758 c-7 -7 -12 -30 -12 -51 0 -33 -3 -38 -17 -32 -92 39 -161
-32 -133 -135 17 -62 77 -89 133 -59 16 9 22 9 25 0 6 -17 39 -13 46 5 3 9 6
71 6 138 0 113 -7 146 -30 146 -3 0 -11 -5 -18 -12z m-22 -137 c18 -34 12 -78
-12 -95 -29 -20 -34 -20 -58 4 -39 39 -20 110 30 110 19 0 33 -7 40 -19z"/>
<path d="M6533 763 c-15 -5 -17 -39 -4 -47 16 -10 41 5 41 24 0 19 -17 30 -37
23z"/>
<path d="M7452 758 c-7 -7 -12 -31 -12 -55 l0 -43 -25 16 c-38 25 -91 11 -115
-29 -42 -69 -8 -169 60 -175 18 -2 45 2 58 10 20 10 26 10 29 1 3 -7 13 -13
24 -13 19 0 19 7 17 147 -3 144 -9 168 -36 141z m-19 -151 c13 -39 1 -76 -28
-89 -35 -16 -65 12 -65 62 0 45 16 62 54 58 22 -2 32 -10 39 -31z"/>
<path d="M7622 762 c-9 -7 -12 -43 -10 -148 3 -127 5 -139 22 -142 10 -2 22 1
26 8 6 9 13 9 28 1 23 -12 62 -14 87 -5 25 10 45 58 45 109 0 38 -5 52 -30 77
-31 31 -46 32 -107 13 -20 -6 -22 -3 -25 41 -3 48 -13 60 -36 46z m118 -122
c27 -15 36 -74 16 -105 -32 -49 -86 -21 -86 45 0 29 6 43 22 54 27 19 24 19
48 6z"/>
<path d="M8706 754 c-9 -8 -16 -27 -16 -41 0 -16 -7 -27 -20 -30 -26 -7 -26
-33 0 -40 17 -4 20 -15 22 -87 3 -73 5 -81 23 -81 18 0 20 8 23 83 2 60 6 82
16 82 8 0 19 7 26 15 10 12 8 16 -15 25 -38 15 -27 37 29 54 15 5 16 9 6 21
-16 20 -74 19 -94 -1z"/>
<path d="M9639 754 c-18 -22 13 -53 35 -35 16 14 12 37 -9 45 -7 2 -19 -2 -26
-10z"/>
<path d="M9742 762 c-9 -7 -12 -43 -10 -148 3 -131 4 -139 23 -139 15 0 21 8
23 30 4 30 18 55 32 55 5 0 20 -20 34 -45 17 -29 34 -45 46 -45 29 0 25 37
-10 90 l-29 44 26 28 c26 27 26 58 0 58 -7 0 -28 -16 -47 -35 -19 -19 -37 -35
-42 -35 -4 0 -8 32 -10 72 -3 70 -11 85 -36 70z"/>
<path d="M8160 715 c-14 -17 -40 -20 -40 -5 0 6 -4 10 -10 10 -19 0 -10 -22
11 -27 18 -5 20 -11 16 -39 -8 -50 16 -43 31 9 7 23 15 48 18 55 8 17 -11 15
-26 -3z"/>
<path d="M6121 664 c-51 -43 -54 -122 -6 -170 45 -45 165 -25 165 27 0 23 -17
24 -44 4 -37 -28 -96 -14 -96 22 0 9 17 13 56 13 88 0 108 19 82 75 -26 57
-107 72 -157 29z m97 -26 c25 -25 13 -38 -33 -38 -48 0 -55 9 -29 34 18 19 45
21 62 4z"/>
<path d="M6340 677 c-20 -10 -25 -20 -25 -52 0 -38 1 -40 54 -60 56 -21 74
-41 50 -56 -20 -13 -24 -12 -58 17 -25 20 -34 24 -45 15 -8 -7 -12 -20 -9 -30
11 -43 127 -57 163 -21 43 43 17 90 -61 113 -26 8 -44 19 -44 27 0 21 39 24
58 6 28 -28 64 -16 51 17 -6 17 -55 37 -88 37 -12 0 -32 -6 -46 -13z"/>
<path d="M6524 677 c-3 -8 -3 -56 -2 -108 3 -86 5 -94 23 -94 18 0 20 8 23 99
2 73 -1 102 -10 108 -19 11 -28 10 -34 -5z"/>
<path d="M6644 678 c-29 -14 -44 -49 -44 -104 0 -79 71 -128 128 -88 21 14 22
14 22 -8 0 -13 -5 -29 -12 -36 -17 -17 -63 -15 -78 3 -12 15 -42 20 -52 9 -12
-11 5 -42 28 -53 27 -12 102 -15 129 -5 32 13 45 59 45 163 0 55 -3 106 -6
115 -8 20 -33 21 -40 1 -5 -13 -9 -13 -34 0 -33 17 -56 18 -86 3z m84 -44 c16
-11 22 -25 22 -53 0 -58 -46 -85 -81 -50 -17 17 -20 29 -15 58 5 31 27 61 46
61 3 0 16 -7 28 -16z"/>
<path d="M6851 676 c-8 -9 -11 -47 -9 -107 3 -93 3 -94 28 -94 24 0 25 3 28
70 3 78 14 97 51 93 25 -3 26 -6 31 -83 5 -73 7 -80 27 -83 29 -4 37 28 30
116 -4 52 -10 70 -27 84 -27 22 -52 23 -90 3 -25 -13 -29 -13 -34 0 -7 19 -20
19 -35 1z"/>
<path d="M7111 676 c-49 -27 -65 -99 -36 -156 20 -38 43 -50 97 -50 50 0 88
22 88 51 0 23 -17 24 -44 4 -37 -28 -96 -14 -96 22 0 9 17 13 56 13 88 0 108
19 82 75 -22 49 -96 69 -147 41z m87 -38 c25 -25 13 -38 -33 -38 -48 0 -55 9
-29 34 18 19 45 21 62 4z"/>
<path d="M7837 683 c-13 -13 -7 -44 27 -127 31 -76 32 -87 19 -105 -8 -12 -25
-21 -39 -21 -19 0 -25 -5 -22 -17 2 -13 15 -19 45 -21 51 -4 57 4 113 147 42
107 47 135 29 147 -16 10 -34 -14 -59 -83 -12 -35 -24 -63 -25 -63 -2 0 -11
24 -20 53 -26 80 -49 110 -68 90z"/>
<path d="M8804 677 c-3 -8 -3 -56 -2 -108 3 -86 5 -94 23 -94 17 0 21 9 26 67
6 75 22 102 56 95 13 -2 28 2 35 10 25 30 -46 58 -74 30 -11 -12 -16 -12 -26
0 -16 17 -31 17 -38 0z"/>
<path d="M8991 676 c-33 -18 -50 -53 -51 -104 0 -35 6 -49 29 -73 25 -24 38
-29 78 -29 54 0 93 21 93 51 0 23 -19 25 -46 4 -36 -27 -94 -14 -94 22 0 9 17
13 59 13 41 0 65 5 75 16 19 18 19 14 5 53 -19 53 -93 77 -148 47z m83 -42
c26 -25 19 -34 -29 -34 -46 0 -58 13 -33 38 17 17 44 15 62 -4z"/>
<path d="M9223 680 c-72 -30 -76 -167 -6 -199 39 -18 97 -13 127 10 14 11 26
25 26 30 0 17 -30 22 -48 7 -30 -26 -50 -28 -76 -7 -38 30 -32 39 27 39 80 0
97 8 97 41 0 61 -83 106 -147 79z m85 -57 c14 -23 14 -23 -37 -23 -53 0 -55 3
-28 38 15 19 47 11 65 -15z"/>
<path d="M9401 676 c-8 -9 -11 -57 -9 -147 3 -130 4 -134 26 -137 20 -3 22 0
22 48 0 46 2 51 18 44 9 -4 34 -9 54 -12 30 -3 42 1 62 22 22 21 26 34 26 81
0 49 -4 60 -29 86 -33 32 -58 36 -101 14 -25 -13 -29 -13 -34 0 -7 19 -20 19
-35 1z m143 -68 c13 -36 -1 -77 -29 -90 -36 -16 -65 12 -65 63 0 67 72 88 94
27z"/>
<path d="M9642 682 c-9 -6 -12 -35 -10 -108 3 -87 5 -99 22 -102 28 -6 36 15
36 101 0 98 -14 130 -48 109z"/>
<path d="M10079 662 c-31 -28 -34 -35 -34 -87 0 -50 3 -60 28 -81 48 -41 143
-29 165 21 9 18 8 26 -4 36 -13 10 -20 8 -40 -14 -45 -49 -94 -26 -94 43 0 29
6 43 22 54 29 21 31 20 67 -10 32 -27 51 -25 51 5 0 28 -35 53 -83 58 -39 5
-48 1 -78 -25z"/>
<path d="M10324 681 c-75 -32 -80 -167 -8 -200 31 -14 89 -14 115 -1 26 15 49
62 49 104 0 71 -88 126 -156 97z m74 -47 c42 -29 22 -124 -25 -124 -49 0 -71
82 -33 120 24 24 29 24 58 4z"/>
<path d="M10512 682 c-9 -6 -12 -35 -10 -108 3 -98 3 -99 28 -99 24 0 25 3 28
60 3 91 9 105 37 105 28 0 34 -14 37 -105 3 -54 5 -60 26 -63 20 -3 22 1 22
45 0 72 17 123 41 123 26 0 39 -37 39 -111 0 -57 1 -60 23 -57 21 3 22 8 25
90 2 77 0 90 -18 108 -24 24 -57 26 -88 4 -20 -14 -24 -14 -44 0 -28 20 -57
20 -85 1 -19 -13 -22 -13 -27 0 -6 17 -15 18 -34 7z"/>
<path d="M8537 603 c-4 -6 -38 -22 -75 -35 -54 -19 -87 -23 -174 -22 -60 0
-108 -4 -108 -8 0 -5 15 -24 33 -44 24 -27 45 -38 82 -45 98 -18 205 20 241
86 16 30 17 93 1 68z"/>
<path d="M9962 521 c-19 -12 -11 -45 12 -49 24 -5 37 17 25 40 -11 20 -18 22
-37 9z"/>
</g>
</svg>
