<?xml version="1.0" standalone="no"?>
<!DOCTYPE svg PUBLIC "-//W3C//DTD SVG 20010904//EN"
 "http://www.w3.org/TR/2001/REC-SVG-20010904/DTD/svg10.dtd">
<svg version="1.0" xmlns="http://www.w3.org/2000/svg"
 width="1667.000000pt" height="1667.000000pt" viewBox="0 0 1667.000000 1555.000000"
 preserveAspectRatio="xMidYMid meet">

<g transform="translate(0.000000,1667.000000) scale(0.100000,-0.100000)"
fill="#000000" stroke="none">
<path d="M8822 15235 c-185 -42 -381 -198 -544 -435 -51 -74 -102 -160 -95
-160 3 0 38 39 78 88 106 127 254 276 330 333 130 96 298 150 403 127 123 -26
179 -136 217 -423 12 -96 22 -125 43 -125 7 0 52 30 100 67 100 77 99 77 116
-32 22 -141 53 -189 137 -210 l48 -12 -1 -84 c-1 -103 -24 -174 -135 -410 -44
-92 -79 -174 -79 -182 0 -23 39 -47 75 -47 46 0 125 53 125 84 0 28 -24 40
-51 25 -11 -6 -24 -9 -29 -7 -5 2 13 57 41 123 88 214 111 296 117 422 5 123
-1 143 -45 143 -37 0 -90 26 -107 52 -9 13 -22 58 -30 100 -20 103 -53 178
-78 178 -11 0 -55 -28 -99 -61 -44 -34 -81 -60 -83 -58 -2 2 -9 40 -15 84 -38
250 -86 357 -184 406 -53 27 -170 34 -255 14z"/>
<path d="M8453 14640 c6 -102 29 -165 68 -185 51 -27 89 -18 225 50 71 35 132
65 135 65 4 0 -7 -42 -23 -92 -21 -65 -30 -116 -31 -168 l-2 -75 30 3 c41 4
129 45 175 82 21 16 42 30 48 30 6 0 10 -43 9 -112 0 -62 1 -138 3 -168 2 -38
-6 -82 -24 -144 -80 -265 -178 -405 -308 -436 -39 -10 -57 -9 -105 5 -162 47
-342 361 -360 628 -4 61 -10 87 -19 87 -35 0 -24 -203 18 -338 43 -141 137
-293 221 -361 67 -54 122 -74 202 -75 82 0 136 23 202 86 l41 41 -23 -81 c-57
-196 -75 -384 -47 -479 33 -112 133 -180 312 -214 58 -11 134 -26 170 -35 123
-28 143 -84 77 -217 -55 -112 -51 -109 -122 -92 -271 65 -653 63 -930 -6 -89
-22 -268 -79 -263 -84 2 -2 43 7 92 21 206 55 323 68 581 68 257 0 334 -8 548
-61 l107 -26 10 -36 c24 -92 32 -193 27 -341 -6 -157 -17 -235 -80 -570 -107
-560 -146 -1012 -113 -1310 13 -126 21 -160 60 -260 148 -388 301 -626 836
-1305 490 -622 670 -884 868 -1265 492 -945 812 -2112 947 -3455 26 -265 40
-467 55 -835 5 -135 13 -288 16 -340 l6 -96 -59 -18 c-278 -88 -623 -295 -877
-525 -122 -110 -187 -139 -266 -115 -69 20 -90 50 -90 130 0 80 -9 104 -61
154 -97 94 -265 146 -439 136 -210 -11 -385 -73 -889 -316 -393 -188 -521
-232 -683 -233 -94 0 -123 11 -155 60 -14 21 -19 59 -24 197 -5 126 -11 184
-25 221 -71 198 -243 309 -556 357 -105 16 -527 15 -663 -1 -175 -21 -347 -59
-642 -142 -534 -149 -655 -172 -903 -173 -175 -1 -272 7 -300 24 -12 8 -8 16
24 49 48 49 123 90 263 142 141 53 215 93 278 150 130 119 160 297 67 390 -78
77 -232 105 -510 95 -199 -8 -307 -21 -626 -76 -691 -119 -1005 -117 -1135 7
-24 24 -47 41 -50 38 -2 -3 9 -24 25 -48 39 -55 115 -93 224 -113 157 -29 505
-5 895 61 484 81 676 98 886 77 225 -24 314 -100 279 -240 -23 -95 -87 -170
-188 -221 -23 -12 -96 -41 -161 -65 -216 -80 -307 -138 -356 -230 -29 -53 -15
-67 86 -89 63 -14 129 -19 264 -19 261 -1 413 25 890 156 439 120 561 142 842
155 204 10 500 -2 599 -23 153 -33 292 -105 342 -180 52 -76 64 -130 72 -316
6 -147 10 -182 28 -215 42 -82 97 -108 232 -108 186 0 314 45 820 288 280 135
421 193 558 232 82 23 117 27 222 28 142 0 216 -19 304 -78 73 -48 90 -75 97
-161 10 -126 68 -176 202 -176 108 0 179 38 326 174 146 136 354 277 559 380
100 50 253 108 268 102 10 -4 14 -25 14 -69 0 -64 14 -94 36 -79 6 4 14 42 17
86 3 43 9 82 14 87 5 5 62 18 128 29 132 23 324 29 487 17 104 -8 106 -8 113
14 11 35 -13 47 -125 60 -166 19 -385 5 -576 -36 l-31 -7 -7 194 c-39 1104
-195 2176 -446 3065 -144 509 -296 910 -516 1353 -244 494 -386 707 -878 1318
-303 377 -430 545 -548 727 -134 205 -275 462 -377 690 l-35 80 -1 310 c0 189
5 357 13 430 31 286 65 535 102 750 59 340 70 427 69 570 0 139 -23 253 -70
348 -7 12 1 37 26 87 85 168 59 281 -73 324 -26 8 -99 22 -162 30 -63 8 -140
24 -171 35 -71 27 -132 79 -153 132 -42 103 -6 355 88 626 19 54 54 155 78
225 39 116 45 127 63 120 33 -12 117 -8 163 7 33 11 42 19 42 38 0 27 -10 28
-90 11 -45 -9 -61 -9 -85 3 -28 14 -29 16 -26 82 2 62 0 69 -18 74 -19 5 -21
14 -23 116 -4 137 -9 140 -105 66 -69 -53 -141 -91 -155 -83 -12 8 2 90 33
196 33 111 35 128 14 128 -8 0 -82 -34 -166 -75 -83 -41 -157 -75 -165 -75
-55 0 -99 65 -110 165 -11 98 -26 101 -21 5z"/>
<path d="M8854 14096 c-7 -19 3 -36 22 -36 10 0 14 8 12 22 -4 26 -26 36 -34
14z"/>
<path d="M8411 13448 c-19 -83 -78 -196 -131 -249 -63 -63 -93 -68 -222 -39
-261 59 -410 -22 -515 -280 -37 -90 -124 -389 -228 -785 -130 -494 -199 -717
-280 -900 -26 -60 -113 -292 -139 -370 -76 -235 -85 -394 -57 -950 l17 -340
-81 -96 c-45 -53 -126 -154 -180 -225 -55 -71 -194 -253 -310 -404 -1111
-1447 -1593 -2211 -1960 -3110 -299 -731 -474 -1548 -475 -2207 0 -155 3 -173
31 -173 23 0 23 -4 49 275 98 1055 290 1750 727 2625 378 759 756 1323 1801
2690 162 212 318 418 346 458 l51 74 7 -64 c4 -35 14 -142 23 -238 9 -96 27
-239 40 -316 24 -141 68 -330 79 -342 4 -3 12 0 18 6 10 10 7 48 -10 170 -51
350 -72 539 -86 777 -42 684 -48 818 -43 980 6 187 19 258 82 430 20 55 42
124 50 155 7 30 40 125 73 210 33 86 83 226 110 312 47 144 72 234 213 758
137 507 202 665 321 775 93 86 199 106 343 65 38 -11 84 -20 101 -20 71 0 183
117 225 235 18 51 37 165 27 165 -2 0 -10 -23 -17 -52z"/>
<path d="M7908 12132 c-127 -319 -194 -522 -171 -522 4 0 32 63 62 140 30 77
56 139 58 137 2 -2 10 -29 18 -61 20 -77 62 -157 167 -318 141 -218 178 -314
178 -466 0 -246 -108 -406 -490 -728 -182 -153 -269 -237 -329 -317 -24 -32
-46 -56 -48 -53 -6 6 15 252 33 396 38 305 66 431 163 734 34 104 61 194 61
200 -2 43 -127 -266 -174 -429 -81 -284 -107 -466 -141 -1001 -14 -219 -32
-464 -40 -544 -15 -144 -70 -560 -81 -612 -4 -20 -2 -28 9 -28 10 0 23 38 45
128 58 238 86 459 108 862 6 117 9 128 37 170 68 101 181 221 337 359 403 355
526 505 575 696 19 74 19 229 0 317 -18 88 -78 212 -150 313 -134 189 -189
280 -216 359 -16 44 -29 88 -29 97 0 8 23 71 50 140 70 170 110 286 103 293
-19 18 -37 -18 -135 -262z"/>
<path d="M7966 10025 c-20 -30 -38 -75 -30 -75 3 0 15 10 26 23 11 13 18 16
15 7 -3 -9 -10 -42 -17 -75 -11 -55 -11 -60 7 -74 18 -15 18 -17 -20 -55 -22
-23 -52 -59 -67 -81 -42 -61 -122 -208 -125 -230 -2 -11 -12 -46 -24 -78 -19
-54 -51 -168 -66 -231 l-6 -28 -37 53 c-47 66 -64 78 -88 58 -49 -41 -71 -185
-40 -271 l14 -38 -65 0 c-63 0 -108 -15 -145 -48 -25 -22 -22 -42 13 -85 l30
-37 -45 0 c-42 0 -73 -16 -44 -24 7 -1 45 -11 83 -20 39 -9 89 -29 113 -46 23
-17 51 -30 62 -30 33 0 23 28 -21 57 l-41 27 36 13 c40 13 125 81 126 99 0 7
-17 47 -37 90 -41 87 -54 173 -33 224 12 29 14 30 30 15 37 -34 63 -116 65
-205 3 -96 10 -120 35 -120 30 0 42 27 47 103 4 59 13 89 50 167 l45 95 15
-35 c32 -75 2 -178 -84 -281 -184 -224 -206 -257 -185 -282 8 -9 42 -17 90
-21 230 -19 221 -17 224 -40 2 -11 13 -25 26 -31 14 -6 20 -15 16 -25 -11 -28
-17 -89 -10 -115 4 -14 16 -35 28 -47 21 -21 21 -21 2 -55 -20 -38 -64 -66
-88 -57 -24 9 -38 72 -34 156 3 86 -4 90 -21 10 -17 -82 -14 -142 10 -181 19
-32 22 -33 70 -29 55 6 93 33 114 83 12 27 16 29 58 26 64 -4 112 21 133 69
l17 38 45 -24 c34 -18 61 -24 109 -24 61 0 67 2 99 34 41 41 44 79 13 144 -40
81 -125 116 -279 114 l-95 -2 3 49 c3 42 0 53 -28 85 -18 19 -59 49 -91 64
l-60 29 68 29 c49 20 85 28 128 29 42 0 70 6 89 18 34 23 29 42 -13 41 -17 -1
-31 1 -31 5 0 4 39 41 86 81 193 166 411 436 510 632 l34 68 21 -21 c23 -23
44 -20 102 17 47 30 57 52 32 70 -16 12 -24 11 -59 -10 -33 -19 -45 -22 -57
-13 -14 10 -14 17 -3 47 7 19 13 43 13 53 1 26 -58 51 -103 43 -30 -6 -36 -11
-36 -32 0 -19 6 -26 30 -31 36 -7 35 -11 -16 -122 l-35 -74 -33 69 c-58 122
-90 126 -99 12 -4 -40 -3 -89 1 -108 7 -30 12 -35 34 -33 20 1 27 -4 31 -23 3
-19 -10 -46 -56 -110 -59 -83 -77 -99 -77 -69 0 9 -7 26 -15 38 -8 12 -16 39
-19 59 -6 49 -12 58 -40 58 -43 0 -57 -38 -50 -137 8 -103 25 -126 61 -83 18
20 43 27 43 12 0 -14 -174 -205 -236 -258 -72 -62 -180 -136 -248 -171 -43
-22 -150 -63 -163 -63 -3 0 5 13 16 29 66 92 81 210 38 292 -30 56 -50 60 -79
15 -13 -20 -26 -36 -30 -36 -8 0 15 89 48 193 24 72 27 77 54 77 37 0 60 32
60 83 0 29 6 44 24 58 43 34 69 86 63 125 -5 32 -2 37 46 76 29 22 71 50 95
60 51 23 59 54 11 44 -24 -5 -101 -36 -129 -53 -3 -2 -5 43 -5 99 0 86 -3 103
-16 106 -9 1 -24 -9 -33 -23z m-105 -528 c-16 -16 -20 -5 -8 23 9 22 11 23 14
6 3 -10 0 -23 -6 -29z m-361 -637 c21 -11 42 -24 45 -30 19 -31 -63 -65 -118
-49 -39 10 -82 52 -72 69 20 33 91 38 145 10z m398 -61 c107 -35 159 -96 126
-147 l-16 -25 -137 7 c-186 9 -233 15 -229 33 2 7 28 48 58 89 l55 75 40 -6
c22 -3 68 -15 103 -26z m438 -235 c45 -22 94 -81 94 -116 0 -37 -42 -68 -93
-68 -50 0 -120 32 -141 65 -25 37 -43 31 -49 -16 -3 -26 -16 -52 -34 -71 -23
-24 -34 -28 -68 -26 l-40 3 -7 65 c-3 36 -11 78 -17 94 -7 16 -10 30 -8 32 1
2 45 14 97 28 113 30 216 33 266 10z"/>
<path d="M7725 9953 c-17 -43 -17 -160 -1 -216 9 -31 20 -57 25 -57 19 0 32
80 29 180 -3 98 -4 105 -24 108 -13 2 -24 -4 -29 -15z"/>
<path d="M8232 9839 c2 -7 18 -16 35 -20 17 -3 46 -16 66 -28 43 -26 67 -27
67 -1 0 26 -49 50 -117 57 -45 5 -55 3 -51 -8z"/>
<path d="M7568 9698 c-8 -14 -13 -56 -13 -108 0 -72 4 -92 25 -128 28 -50 74
-80 95 -62 9 8 12 39 11 114 -1 96 -3 106 -31 152 -35 56 -66 68 -87 32z"/>
<path d="M9276 9631 c-60 -94 -68 -121 -37 -121 21 0 62 48 104 121 32 55 35
89 8 89 -13 0 -37 -28 -75 -89z"/>
<path d="M8785 9660 c-11 -4 -33 -33 -49 -63 -26 -48 -28 -58 -16 -72 16 -19
70 -13 108 11 25 16 30 63 9 103 -14 29 -25 33 -52 21z"/>
<path d="M9045 9616 c-24 -36 -35 -85 -35 -153 l0 -63 -122 -61 c-68 -34 -178
-95 -245 -135 -68 -41 -127 -74 -132 -74 -4 0 -6 11 -4 24 4 21 -2 28 -38 45
-52 25 -49 25 -49 1 0 -11 -7 -23 -15 -26 -8 -4 -15 -17 -15 -30 0 -20 5 -24
29 -24 63 0 41 -27 -122 -149 -152 -114 -251 -194 -217 -176 8 5 40 27 70 50
56 43 258 177 318 211 31 18 34 18 43 2 24 -43 214 -48 243 -6 28 39 12 47
-101 50 l-104 3 68 39 c37 21 87 50 110 63 39 22 41 23 36 5 -4 -16 5 -24 51
-41 67 -25 133 -27 205 -5 48 14 52 17 49 42 -3 23 -7 27 -33 25 -153 -12
-225 -14 -239 -6 -14 7 28 33 198 122 193 101 240 131 205 131 -5 0 -41 -13
-80 -30 -80 -34 -78 -38 -49 85 11 47 20 90 20 95 0 19 -30 10 -45 -14z"/>
<path d="M8608 9418 c28 -14 28 -33 0 -52 -21 -15 -21 -17 -5 -33 23 -23 183
-26 196 -4 19 30 1 41 -70 41 -66 0 -69 1 -69 24 0 16 -7 26 -22 30 -37 10
-56 6 -30 -6z"/>
<path d="M9188 9377 c-43 -6 -78 -14 -78 -19 0 -9 98 -11 153 -2 22 4 37 12
37 20 0 15 -1 15 -112 1z"/>
<path d="M8216 9312 c-3 -5 -8 -39 -12 -75 l-7 -67 26 0 c14 0 28 4 31 8 9 15
-9 135 -21 139 -6 2 -14 0 -17 -5z"/>
<path d="M8385 8948 c-18 -11 -12 -14 45 -24 71 -14 100 -4 66 22 -24 17 -83
18 -111 2z"/>
<path d="M6865 8388 c-163 -176 -308 -473 -337 -689 -16 -123 12 -279 51 -279
16 0 86 62 129 113 23 29 57 80 75 114 17 35 35 63 40 63 4 0 7 -40 7 -90 0
-49 7 -158 16 -242 20 -201 35 -218 95 -112 17 30 33 54 36 54 2 0 1 -53 -2
-117 -8 -136 8 -452 30 -598 79 -520 278 -785 589 -785 57 0 86 19 86 56 0 35
-23 52 -85 63 -184 33 -319 175 -399 424 -51 156 -87 407 -106 732 -10 180
-14 852 -4 843 3 -3 23 -82 44 -174 21 -93 61 -259 89 -369 27 -110 62 -254
76 -320 49 -220 88 -319 300 -776 336 -720 428 -1003 442 -1359 6 -161 -5
-250 -57 -462 l-30 -123 21 -17 c33 -27 56 -7 101 88 66 143 89 251 95 454 12
424 -56 656 -420 1435 -268 572 -297 653 -462 1284 -60 232 -118 418 -166 533
-35 85 -32 83 50 -39 68 -100 118 -151 180 -183 53 -26 67 -25 101 8 20 20 30
42 35 80 8 61 30 90 108 147 31 22 65 56 76 75 23 42 36 117 27 165 -10 51
-32 44 -41 -12 -16 -119 -50 -171 -140 -223 -70 -40 -85 -62 -85 -126 0 -98
-35 -93 -142 19 -59 61 -252 325 -283 385 -9 19 -19 31 -22 29 -8 -8 16 -74
53 -149 33 -66 33 -67 11 -70 -21 -3 -22 -8 -29 -153 -23 -518 -32 -593 -90
-723 l-21 -47 -8 40 c-14 74 -31 339 -27 415 3 54 15 102 42 174 44 119 81
258 91 344 6 58 6 62 -13 62 -23 0 -78 -103 -111 -210 -22 -70 -51 -224 -51
-272 0 -84 -203 -388 -237 -354 -4 4 -9 51 -11 104 -3 79 1 115 22 195 41 158
139 349 280 542 36 49 66 93 66 97 0 20 -23 2 -85 -64z"/>
<path d="M8180 8285 c-10 -12 -7 -20 14 -45 67 -80 36 -282 -51 -332 -38 -23
-74 -10 -93 31 -19 39 -24 164 -11 240 15 81 15 85 3 89 -5 1 -18 -23 -28 -55
-14 -44 -19 -88 -19 -180 0 -108 2 -125 21 -150 41 -54 128 -56 188 -3 97 85
110 306 24 397 -25 27 -31 28 -48 8z"/>

</g>
</svg>
