<?xml version="1.0" standalone="no"?>
<!DOCTYPE svg PUBLIC "-//W3C//DTD SVG 20010904//EN"
 "http://www.w3.org/TR/2001/REC-SVG-20010904/DTD/svg10.dtd">
<svg version="1.0" xmlns="http://www.w3.org/2000/svg"
 width="1667.000000pt" height="1667.000000pt" viewBox="0 0 1667.000000 1375.000000"
 preserveAspectRatio="xMidYMid meet">

<g transform="translate(0.000000,1667.000000) scale(0.100000,-0.100000)"
fill="#000000" stroke="none">
<path d="M8630 15164 c-133 -12 -460 -72 -460 -85 0 -17 21 -17 185 7 235 35
442 37 540 7 118 -37 165 -91 214 -248 28 -88 57 -135 82 -135 27 0 25 30 -10
133 -63 186 -122 257 -246 296 -62 19 -220 32 -305 25z"/>
<path d="M7523 15105 c-87 -53 -115 -161 -62 -241 l26 -39 -44 -29 c-52 -34
-134 -145 -164 -225 -30 -79 -32 -199 -3 -238 29 -40 81 -72 126 -79 l38 -7 0
-66 c1 -104 46 -180 119 -198 14 -3 41 -24 60 -45 29 -34 39 -39 65 -35 17 2
49 -2 71 -10 65 -24 177 -20 232 8 54 28 73 53 56 70 -9 9 -27 7 -78 -9 -84
-28 -162 -28 -225 -1 -27 12 -56 19 -64 16 -30 -12 -27 14 4 39 44 37 70 95
77 169 6 65 6 65 -20 65 -60 0 -156 -109 -157 -177 0 -39 -19 -44 -50 -13 -26
26 -32 53 -28 125 l3 60 50 8 c117 19 260 120 308 217 26 53 37 49 37 -13 0
-50 19 -105 38 -111 9 -3 34 -8 55 -12 45 -8 46 -1 11 74 -14 30 -26 71 -26
91 0 20 -6 63 -14 95 -14 53 -14 66 1 135 29 133 108 307 127 279 6 -9 7 -5 2
12 -3 14 -3 22 1 18 11 -11 38 29 29 43 -9 16 -112 5 -152 -15 -74 -38 -109
-146 -98 -300 6 -86 5 -89 -12 -73 -45 40 -125 7 -224 -94 -71 -72 -148 -192
-169 -265 -12 -41 -16 -44 -39 -39 -123 31 -152 146 -75 298 45 89 93 149 137
170 32 16 32 15 44 -12 24 -56 104 -95 104 -51 0 26 -23 72 -44 89 -27 23 -18
38 37 66 47 24 49 26 18 20 -31 -5 -47 -13 -97 -50 -18 -13 -52 19 -76 72 -24
55 -12 109 37 158 45 45 103 61 170 47 60 -12 67 -9 26 12 -48 25 -138 21
-188 -9z m567 -49 c0 -2 -16 -28 -36 -57 -20 -30 -54 -89 -75 -133 -21 -43
-41 -82 -45 -85 -4 -3 -4 28 -1 70 8 108 47 175 117 202 18 7 40 8 40 3z
m-255 -406 c24 -27 25 -103 1 -149 -41 -77 -186 -179 -283 -197 -39 -8 -41 2
-13 63 40 90 166 242 235 284 37 23 38 23 60 -1z m-127 -487 c-14 -51 -32 -84
-57 -107 -19 -17 -21 -17 -27 -2 -9 25 24 103 53 126 37 29 43 25 31 -17z"/>
<path d="M8071 14940 c-16 -74 -13 -238 4 -275 l15 -30 -5 30 c-13 80 -16 205
-6 259 14 73 7 87 -8 16z"/>
<path d="M9085 14438 c-37 -217 -17 -374 55 -443 17 -16 30 -35 30 -42 0 -7
-11 -45 -24 -85 -14 -40 -34 -142 -46 -226 -27 -200 -28 -202 -82 -202 -58 0
-135 22 -196 55 -101 55 -245 235 -220 275 22 35 -5 50 -94 50 l-80 0 66 71
c82 89 114 163 96 223 -13 42 -54 87 -104 113 -24 12 -19 5 21 -31 63 -57 82
-104 63 -161 -16 -48 -106 -139 -200 -201 -41 -27 -75 -56 -75 -64 0 -16 -3
-16 150 -5 l80 6 -28 -25 c-15 -14 -60 -44 -100 -67 -113 -65 -159 -106 -155
-138 3 -25 5 -26 91 -31 79 -4 91 -8 109 -30 22 -28 22 -85 -3 -193 -13 -55
-12 -60 6 -74 27 -20 148 -14 171 9 30 30 10 48 -52 48 -49 0 -55 2 -49 18 4
9 9 50 12 89 10 128 -25 183 -130 202 l-42 7 60 38 c33 21 82 53 109 71 l50
34 42 -72 c54 -93 144 -179 231 -220 56 -26 80 -32 138 -32 92 0 131 16 138
58 3 18 19 111 36 207 17 96 37 198 45 225 20 64 20 94 1 102 -28 10 -75 90
-91 155 -14 52 -16 93 -10 231 3 92 5 167 3 167 -2 0 -12 -51 -22 -112z"/>
<path d="M8138 14453 c7 -3 16 -2 19 1 4 3 -2 6 -13 5 -11 0 -14 -3 -6 -6z"/>
<path d="M8190 14342 c0 -5 14 -29 32 -53 23 -31 31 -54 30 -79 -1 -32 0 -33
10 -13 10 22 12 21 65 -26 66 -59 151 -107 165 -93 6 6 -13 25 -54 54 -64 47
-160 141 -192 191 -17 25 -56 38 -56 19z"/>
<path d="M7992 14234 c8 -9 23 -14 33 -12 12 2 7 7 -16 15 -30 12 -32 11 -17
-3z"/>
<path d="M9907 14236 c-8 -19 15 -37 32 -26 17 10 7 40 -13 40 -7 0 -16 -6
-19 -14z"/>
<path d="M10230 14135 c0 -8 7 -15 15 -15 8 0 15 7 15 15 0 8 -7 15 -15 15 -8
0 -15 -7 -15 -15z"/>
<path d="M10033 14114 c-3 -8 -1 -20 6 -27 14 -14 47 15 37 32 -10 16 -36 13
-43 -5z"/>
<path d="M10220 14045 c0 -8 5 -15 10 -15 6 0 10 7 10 15 0 8 -4 15 -10 15 -5
0 -10 -7 -10 -15z"/>
<path d="M10430 14040 c0 -23 25 -27 33 -6 7 16 -1 26 -20 26 -7 0 -13 -9 -13
-20z"/>
<path d="M9667 14034 c-10 -11 -9 -42 3 -49 20 -12 51 6 48 28 -3 22 -36 35
-51 21z"/>
<path d="M9892 14031 c2 -7 7 -12 11 -12 12 1 9 15 -3 20 -7 2 -11 -2 -8 -8z"/>
<path d="M10301 13971 c-17 -31 -3 -51 35 -51 23 0 37 6 41 16 16 42 -55 75
-76 35z"/>
<path d="M10010 13955 c-19 -23 -8 -50 22 -53 22 -3 29 2 34 22 3 14 3 30 -1
35 -9 16 -41 13 -55 -4z"/>
<path d="M10136 13934 c-21 -22 -26 -36 -26 -79 0 -70 43 -135 121 -184 33
-21 59 -44 61 -56 9 -57 222 -108 300 -71 56 27 72 83 44 151 -16 37 -42 55
-79 55 -21 0 -23 4 -19 26 6 32 -32 74 -67 74 -14 0 -39 -8 -56 -18 l-30 -19
-10 41 c-13 52 -38 58 -64 16 l-19 -32 -19 44 c-11 24 -28 51 -37 61 -26 25
-69 21 -100 -9z m90 -66 c30 -58 63 -177 51 -185 -16 -10 -96 85 -109 130 -8
27 -8 43 0 62 16 34 38 31 58 -7z m118 -34 c10 -25 6 -58 -8 -76 -17 -23 -26
-13 -26 28 0 37 8 64 20 64 4 0 11 -7 14 -16z m132 -56 c4 -6 -9 -25 -32 -46
-21 -18 -54 -47 -71 -63 -38 -34 -70 -40 -54 -10 6 10 34 44 64 75 52 55 79
68 93 44z m96 -95 c21 -19 24 -56 6 -70 -24 -19 -67 -23 -117 -12 -28 6 -51
14 -51 19 0 17 104 78 134 80 5 0 18 -7 28 -17z"/>
<path d="M9770 13870 c0 -5 7 -10 15 -10 8 0 15 5 15 10 0 6 -7 10 -15 10 -8
0 -15 -4 -15 -10z"/>
<path d="M9902 13838 c-32 -32 4 -87 48 -73 25 8 37 50 20 70 -15 18 -51 20
-68 3z"/>
<path d="M8062 13692 c-2 -105 -20 -190 -54 -262 -20 -42 -138 -170 -156 -170
-5 0 -13 12 -19 28 l-11 27 5 -31 c6 -40 -2 -45 -197 -123 -182 -73 -250 -112
-313 -179 -113 -122 -156 -278 -177 -646 -19 -338 -11 -588 35 -1011 40 -376
45 -456 45 -760 0 -357 13 -575 46 -765 50 -285 54 -328 64 -655 15 -488 44
-679 134 -860 65 -131 184 -255 245 -255 33 0 25 22 -30 75 -142 139 -225 319
-264 577 -8 57 -20 229 -25 383 -11 310 -20 409 -55 630 -56 348 -57 367 -65
910 -7 507 -8 527 -41 790 -33 265 -34 278 -34 665 0 413 6 503 46 650 41 150
131 274 247 338 l42 23 80 -163 c225 -457 285 -746 206 -993 -14 -44 -41 -105
-60 -135 -20 -30 -36 -62 -36 -72 0 -28 246 -325 387 -467 73 -73 133 -135
133 -137 0 -2 -7 -4 -15 -4 -8 0 -15 -7 -15 -15 0 -14 13 -20 35 -15 6 1 41 9
78 17 38 8 108 28 155 44 110 38 602 285 644 323 l32 28 120 -31 c84 -23 164
-53 264 -102 79 -38 153 -69 164 -69 19 0 20 -4 14 -47 -3 -27 -9 -125 -12
-220 l-7 -171 -51 28 c-75 42 -155 60 -272 60 -168 0 -288 -24 -914 -186 -97
-25 -163 -36 -234 -39 -95 -3 -100 -5 -132 -36 -18 -17 -47 -58 -64 -90 -89
-167 -201 -633 -270 -1119 -27 -192 -35 -216 -45 -136 -14 111 2 309 45 551
67 379 66 571 -6 1055 -68 457 -76 534 -78 750 0 121 -4 182 -8 150 -19 -168
-7 -425 38 -785 42 -336 54 -473 54 -640 0 -179 -12 -285 -64 -555 -45 -241
-59 -390 -46 -511 11 -112 27 -168 85 -304 98 -230 108 -299 76 -525 -27 -183
-27 -233 -4 -228 39 7 78 252 70 438 -6 140 -15 178 -88 351 l-48 115 60 320
c124 661 225 1016 323 1132 l28 32 98 0 c113 0 233 21 490 85 351 88 416 99
610 99 162 1 179 -1 225 -22 27 -12 72 -46 100 -76 l50 -52 100 -17 c148 -24
173 -33 196 -70 48 -79 93 -242 139 -507 17 -96 58 -299 91 -450 138 -628 176
-981 186 -1720 7 -558 -9 -1154 -52 -1920 -58 -1028 -184 -2593 -270 -3360
-39 -346 -61 -573 -71 -739 l-7 -113 -34 -14 c-28 -12 -41 -12 -76 -2 -56 16
-170 130 -267 268 -172 246 -189 254 -263 133 -60 -100 -87 -164 -132 -307
-20 -64 -40 -114 -44 -111 -15 9 -53 157 -74 288 -18 108 -25 132 -40 135 -23
5 -43 -42 -98 -223 -23 -77 -45 -144 -49 -148 -4 -5 -18 47 -30 115 -29 161
-33 173 -56 173 -27 0 -56 -66 -111 -255 -25 -88 -50 -160 -54 -160 -12 0 -19
52 -29 245 -6 105 -13 196 -15 203 -2 6 -13 12 -23 12 -25 0 -80 -89 -152
-249 -64 -142 -85 -179 -97 -168 -4 4 -1 93 5 198 7 105 10 195 7 200 -4 5
-15 9 -25 9 -24 0 -42 -35 -105 -203 -26 -70 -50 -125 -53 -122 -3 2 1 113 8
246 13 245 11 269 -23 256 -20 -8 -51 -106 -82 -262 -39 -195 -83 -335 -106
-335 -13 0 -14 37 -14 370 0 294 0 295 -21 298 -18 3 -26 -8 -52 -70 -16 -40
-55 -154 -87 -253 -70 -222 -98 -300 -143 -390 -44 -88 -112 -187 -126 -182
-24 8 -49 103 -53 207 -4 86 1 139 26 294 52 315 52 396 1 396 -31 0 -149
-165 -250 -349 -34 -62 -63 -111 -64 -109 -1 2 1 50 5 108 10 128 1 266 -17
281 -9 7 -19 7 -32 0 -26 -14 -154 -167 -255 -304 -44 -59 -82 -106 -84 -103
-3 2 7 56 21 118 33 139 56 278 49 295 -3 7 -15 13 -28 13 -32 0 -99 -77 -196
-224 -44 -65 -79 -115 -79 -109 0 5 21 60 46 123 69 171 122 323 117 338 -23
64 -250 -114 -377 -295 -32 -46 -59 -83 -62 -83 -5 0 6 26 65 159 28 62 51
122 51 132 0 62 -93 5 -232 -139 -62 -65 -89 -88 -84 -72 21 74 38 170 33 184
-14 35 -51 17 -126 -61 -40 -43 -70 -69 -66 -58 4 11 24 65 45 120 49 130 51
137 41 154 -13 20 -82 -7 -167 -64 -35 -24 -64 -42 -64 -41 0 2 9 29 20 62 34
96 13 107 -81 44 -61 -42 -139 -111 -266 -234 -40 -38 -74 -68 -77 -65 -2 2
43 63 101 134 57 72 130 167 161 213 49 74 54 84 41 98 -14 13 -28 9 -130 -34
-232 -100 -462 -224 -635 -343 -39 -27 -73 -49 -77 -49 -4 0 24 40 63 89 38
48 70 91 70 95 0 21 -33 -2 -73 -51 -25 -32 -56 -69 -69 -83 -74 -79 -158
-186 -158 -202 0 -32 25 -20 132 59 161 121 366 246 575 349 106 53 197 94
202 92 11 -3 -38 -70 -189 -254 -177 -217 -214 -284 -156 -284 36 0 115 61
267 205 160 153 227 210 235 203 8 -9 -65 -161 -91 -188 -70 -76 -216 -344
-219 -404 -1 -24 4 -32 19 -34 17 -2 41 33 140 210 93 165 133 226 180 274 55
55 159 134 177 134 14 0 -38 -123 -131 -309 -52 -102 -91 -192 -89 -204 7 -48
35 -28 111 75 79 108 181 231 198 236 8 3 -34 -124 -86 -259 -10 -25 -15 -54
-12 -63 14 -37 44 -13 139 112 53 70 124 154 158 187 l61 60 -26 -60 c-74
-166 -133 -345 -120 -365 3 -6 16 -10 29 -10 18 0 44 32 131 161 124 186 203
284 283 352 56 47 72 55 72 37 0 -19 -45 -129 -117 -287 -40 -90 -85 -199
-100 -243 -24 -74 -25 -82 -10 -97 8 -9 22 -13 30 -10 25 9 82 87 182 247 112
179 135 210 135 186 0 -9 -20 -103 -45 -208 -50 -209 -53 -251 -18 -256 18 -3
51 37 196 230 173 233 202 266 214 254 3 -3 0 -79 -8 -168 -8 -90 -14 -197
-14 -238 0 -73 1 -75 25 -78 23 -3 33 12 124 187 54 105 121 227 150 273 l51
83 3 -38 c2 -21 -8 -105 -23 -188 -56 -329 -54 -446 10 -577 32 -65 39 -72 65
-72 24 0 39 12 80 63 55 67 124 194 163 297 13 36 48 146 77 245 29 99 54 181
56 183 1 2 1 -104 1 -235 -2 -277 8 -353 48 -353 45 0 108 112 145 255 11 43
21 80 23 81 1 2 1 -55 -1 -126 -5 -156 -1 -180 33 -180 20 0 30 11 54 58 15
31 39 86 51 122 13 36 27 69 32 74 4 6 8 -38 8 -96 0 -140 6 -168 36 -168 40
0 92 87 189 317 26 62 50 115 55 118 4 2 10 -77 13 -178 6 -216 29 -317 73
-317 35 0 67 72 119 274 19 70 36 130 38 132 2 3 10 -30 16 -73 26 -163 44
-213 78 -213 31 0 54 51 101 235 41 157 36 159 70 -29 13 -69 32 -132 52 -173
28 -57 35 -64 58 -61 25 3 29 11 72 158 58 197 92 291 132 360 l31 54 35 -39
c19 -22 76 -103 127 -180 108 -165 169 -236 228 -264 57 -28 104 -26 161 4 26
14 53 25 61 25 23 0 32 28 59 186 33 195 57 414 101 914 20 223 47 529 60 680
31 344 86 1062 119 1535 65 928 86 1404 92 2115 l6 595 35 55 c111 171 423
540 682 805 209 214 259 290 281 428 18 117 -8 222 -76 297 -57 63 -96 78
-277 105 -175 26 -244 43 -295 75 -65 40 -67 107 -5 179 74 87 140 114 405
166 100 20 202 45 227 56 66 29 101 66 101 105 0 49 -9 63 -53 85 -32 17 -76
23 -226 34 -201 14 -261 28 -261 64 0 44 109 101 252 130 125 26 197 54 236
92 87 85 39 127 -201 179 -148 31 -188 48 -213 86 -23 34 -5 92 43 140 45 45
84 63 242 109 137 40 192 64 234 103 60 56 33 78 -165 133 -180 50 -268 79
-268 87 0 4 11 59 24 122 13 63 27 136 30 161 l7 46 52 11 c29 6 122 23 207
38 173 29 254 53 318 92 46 30 60 55 42 77 -21 26 -179 19 -353 -14 -83 -17
-174 -31 -202 -33 l-50 -3 -3 42 c-4 51 7 60 138 110 190 73 250 118 250 191
0 47 -24 75 -120 143 -92 64 -160 121 -310 259 -85 79 -127 111 -162 123 -63
21 -136 70 -233 158 -154 139 -229 183 -242 142 -2 -6 26 -48 63 -94 69 -84
69 -89 -1 -34 -91 73 -113 65 -71 -26 23 -47 25 -50 20 -19 -7 35 -6 35 79
-47 46 -45 109 -95 138 -112 104 -59 104 -38 3 89 -101 126 -101 127 -5 40 45
-41 97 -86 115 -100 18 -14 32 -29 32 -34 -1 -6 -23 -21 -51 -36 -35 -18 -60
-41 -84 -77 l-34 -52 -49 62 c-26 34 -84 115 -129 180 -44 64 -85 117 -90 117
-14 0 -31 -51 -26 -78 2 -12 0 -25 -4 -28 -18 -11 -8 -33 26 -54 49 -30 62
-21 25 19 -29 34 -36 62 -24 95 4 12 37 -30 108 -137 56 -85 114 -169 129
-186 21 -26 27 -43 27 -82 0 -28 5 -59 11 -70 8 -16 4 -28 -25 -68 -50 -68
-149 -158 -239 -219 -42 -28 -189 -107 -325 -176 -137 -69 -282 -147 -323
-174 -89 -58 -185 -146 -236 -214 l-37 -51 -18 107 c-10 59 -42 196 -72 306
-30 109 -65 260 -78 334 l-22 134 23 199 c31 260 36 362 22 452 -22 139 -74
216 -186 274 -56 29 -67 31 -170 31 -192 1 -316 -6 -312 -18 2 -6 15 -12 29
-14 36 -4 175 -137 216 -205 85 -141 125 -287 181 -663 55 -365 70 -495 77
-654 3 -74 10 -147 14 -162 7 -23 6 -28 -8 -28 -36 0 -44 16 -40 71 11 132
-24 555 -68 806 -48 282 -111 484 -194 624 -40 67 -169 199 -195 199 -8 0 -15
-1 -15 -3 0 -1 33 -36 73 -77 138 -142 210 -331 276 -725 30 -180 42 -333 49
-616 l7 -257 -70 -5 c-38 -3 -79 -8 -90 -12 -18 -5 -24 4 -49 77 -74 210 -232
480 -516 880 -91 127 -199 283 -242 346 -68 103 -76 118 -71 150 6 35 6 35
-24 29 -27 -5 -34 0 -77 51 -51 61 -163 156 -196 167 -28 9 -25 20 11 43 26
16 36 17 59 9 22 -8 32 -8 44 2 18 15 22 56 6 66 -5 3 4 24 21 47 42 58 63
138 63 238 1 91 -11 180 -22 180 -4 0 -9 -44 -10 -98z m-160 -616 c28 -71 135
-298 239 -506 103 -207 217 -453 254 -546 36 -93 84 -213 105 -266 22 -53 69
-172 104 -265 35 -92 67 -176 71 -185 5 -12 -2 -21 -25 -33 -18 -9 -37 -14
-44 -12 -6 3 -47 67 -90 143 -43 75 -142 239 -220 363 -253 401 -362 597 -464
840 -51 120 -145 397 -157 464 -11 58 -28 45 -20 -15 9 -73 35 -208 47 -238 5
-13 7 -22 4 -19 -9 9 -166 272 -163 274 1 2 52 23 112 49 61 26 126 55 145 66
19 10 39 18 43 17 5 -1 31 -60 59 -131z m1378 98 c59 -27 112 -87 141 -160 19
-50 23 -78 23 -179 1 -104 -21 -341 -30 -332 -2 2 -19 66 -38 142 -43 170
-119 332 -194 415 -54 59 -78 66 -36 9 44 -59 111 -201 143 -304 38 -122 63
-243 91 -440 32 -222 56 -339 110 -545 53 -197 82 -343 69 -348 -4 -2 -41 9
-81 23 -72 25 -74 28 -74 58 0 72 -26 351 -45 482 -32 225 -99 603 -120 687
-61 241 -158 406 -289 490 l-45 29 165 -3 c141 -3 172 -7 210 -24z m-1165
-252 c83 -127 173 -313 274 -568 104 -262 141 -340 250 -532 49 -88 102 -185
115 -217 25 -55 76 -207 76 -225 0 -9 -86 -60 -101 -60 -5 0 -9 17 -9 38 0 20
-16 72 -36 117 -19 44 -89 211 -155 370 -117 282 -240 539 -389 815 -90 166
-260 510 -260 524 1 24 174 -170 235 -262z m235 -308 c0 -4 47 -108 104 -233
129 -280 208 -462 202 -469 -9 -8 -175 340 -257 538 -89 215 -101 251 -70 202
12 -18 21 -35 21 -38z m2732 -16 c21 -6 37 -16 35 -22 -2 -6 -39 -32 -83 -58
-81 -49 -134 -97 -134 -123 0 -26 22 -16 67 30 23 25 49 45 57 45 22 0 76 -49
55 -50 -73 -1 -144 -162 -184 -415 -18 -112 -12 -102 -175 -283 -232 -259
-530 -477 -856 -627 l-119 -55 -3 127 -3 128 -45 47 -46 46 83 87 c112 116
213 181 514 330 138 68 286 147 330 175 102 67 211 177 253 256 35 67 42 94
18 75 -11 -9 -15 -8 -20 5 -10 26 -7 104 5 104 5 0 9 8 8 18 -7 46 55 117 135
153 49 22 57 23 108 7z m393 -318 c158 -110 170 -128 111 -177 -32 -26 -283
-139 -291 -131 -2 1 -9 48 -15 103 -26 221 -85 374 -162 418 l-36 22 31 32 32
32 120 -118 c66 -65 161 -146 210 -181z m-2918 30 c209 -315 318 -509 396
-705 56 -142 57 -137 -2 -165 -28 -13 -53 -22 -54 -19 -2 2 -23 63 -47 134
-64 195 -158 410 -307 705 -74 146 -130 261 -125 255 5 -5 68 -98 139 -205z
m-455 -330 c50 -85 131 -219 179 -297 49 -78 89 -144 89 -148 0 -3 -49 39
-109 93 -102 92 -270 231 -351 290 l-36 25 4 146 c4 135 -10 274 -34 347 -3
10 33 -53 81 -141 48 -88 128 -230 177 -315z m3038 353 c28 -74 46 -169 59
-310 10 -110 10 -113 -14 -155 -31 -54 -33 -108 -5 -115 11 -3 20 -13 20 -22
0 -42 -14 -61 -64 -85 -100 -49 -146 -114 -146 -207 0 -63 26 -109 78 -140 20
-12 39 -24 40 -25 5 -3 -89 -281 -122 -359 -23 -57 -25 -59 -31 -32 -11 41 2
914 14 1022 6 50 13 125 16 168 6 89 28 194 50 236 12 24 69 81 80 81 2 0 13
-26 25 -57z m-3095 -564 c194 -178 336 -324 433 -447 l73 -93 -58 -26 c-32
-14 -87 -36 -123 -50 l-65 -25 -135 139 c-130 132 -381 414 -389 434 -2 6 13
45 32 87 19 42 38 92 42 110 4 21 11 30 18 25 7 -4 84 -73 172 -154z m2815
-66 c-7 -70 -14 -364 -17 -653 -4 -518 -4 -526 -28 -605 -68 -228 -93 -378
-101 -620 -10 -274 23 -640 77 -854 40 -158 102 -282 186 -372 l66 -70 -60
-62 c-122 -127 -262 -312 -376 -499 -40 -64 -75 -117 -78 -118 -3 0 -9 91 -13
203 -22 673 -82 1141 -212 1660 -24 97 -62 275 -84 395 -55 297 -95 437 -154
531 -35 55 -82 71 -206 71 l-100 0 0 78 c0 42 -3 100 -6 128 l-6 51 143 75
c305 157 507 304 734 532 88 89 178 186 200 217 22 31 41 53 43 48 2 -4 -2
-65 -8 -136z m890 103 c0 -11 -112 -40 -261 -66 -92 -16 -174 -32 -183 -36
-12 -4 -16 0 -16 15 0 17 6 21 35 21 20 0 104 13 188 29 211 41 237 45 237 37z
m-585 -298 c-23 -117 -34 -158 -44 -158 -5 0 -23 16 -40 35 -41 48 -41 88 1
139 30 37 88 80 96 71 2 -2 -3 -41 -13 -87z m185 -303 c129 -29 240 -63 240
-74 0 -16 -83 -51 -238 -101 -118 -38 -176 -62 -208 -86 -24 -19 -44 -31 -44
-28 0 3 23 78 51 165 42 131 54 159 68 155 9 -3 68 -17 131 -31z m-300 -479
c0 -37 44 -81 102 -104 29 -12 113 -35 187 -52 74 -16 137 -32 139 -35 14 -14
-29 -31 -165 -67 -243 -63 -323 -116 -323 -214 0 -93 78 -134 254 -134 116 -1
237 -14 267 -31 19 -10 20 -12 4 -29 -25 -28 -152 -67 -310 -96 -77 -14 -155
-32 -174 -40 -18 -8 -37 -14 -41 -14 -4 0 -10 147 -14 326 l-7 326 33 94 c33
94 48 116 48 70z m-166 -838 c5 -31 2 -40 -21 -58 l-28 -22 -3 39 c-4 41 15
225 26 258 3 11 9 -24 14 -80 4 -55 9 -117 12 -137z m74 -431 c29 -9 110 -21
180 -27 70 -6 151 -18 180 -26 110 -31 168 -131 160 -278 -3 -60 -10 -87 -42
-151 -32 -65 -63 -104 -180 -226 -78 -80 -146 -147 -152 -148 -16 -1 -85 108
-133 209 -72 155 -123 374 -137 595 l-7 107 39 -20 c21 -11 63 -27 92 -35z"/>
<path d="M7830 13073 c0 -28 82 -258 139 -388 35 -77 114 -239 176 -360 129
-250 211 -428 254 -550 34 -95 50 -125 68 -125 16 0 16 24 2 89 -12 60 -149
339 -329 675 -139 259 -208 405 -270 568 -22 57 -40 98 -40 91z"/>
<path d="M7810 11742 c0 -18 212 -224 315 -306 127 -101 216 -149 266 -144 22
2 35 9 37 19 2 13 -15 24 -66 43 -110 42 -268 152 -444 309 -96 86 -108 95
-108 79z"/>
<path d="M9687 13763 c-29 -7 -18 -48 13 -48 20 0 25 5 25 24 0 26 -9 31 -38
24z"/>
<path d="M9955 13747 c-89 -36 -145 -101 -145 -168 0 -51 21 -69 78 -68 46 1
46 1 13 9 -51 12 -67 32 -52 68 29 69 140 133 195 112 31 -11 30 -27 -3 -33
-36 -8 -111 -77 -111 -103 0 -11 11 -35 24 -55 l24 -36 -34 -12 c-102 -37
-121 -211 -22 -211 23 0 32 -7 45 -35 9 -19 23 -35 31 -35 22 0 80 49 104 89
12 20 22 37 24 39 1 2 13 0 28 -4 22 -5 26 -12 26 -41 0 -37 21 -86 53 -120
11 -13 16 -23 10 -23 -5 0 -18 9 -29 21 -33 37 -73 52 -126 47 -73 -7 -81 -23
-34 -64 22 -19 47 -34 56 -34 31 0 30 -12 -5 -53 -19 -22 -38 -55 -41 -74 -3
-18 -8 -33 -10 -33 -10 0 -74 35 -74 40 0 3 9 23 20 45 26 50 26 116 2 138
-10 10 -35 17 -55 17 -26 0 -39 6 -47 20 -16 29 -63 50 -115 50 -41 0 -51 -5
-92 -45 -25 -25 -49 -45 -54 -45 -19 0 -49 -66 -49 -107 0 -92 92 -212 175
-228 26 -5 24 -3 -11 14 -80 37 -145 147 -129 219 5 26 50 82 58 71 2 -2 8
-16 15 -31 7 -17 19 -28 31 -28 14 0 21 -10 26 -37 8 -46 54 -93 90 -93 25 0
26 -2 19 -27 -5 -16 -8 -48 -8 -72 0 -38 4 -48 34 -73 l35 -29 -30 6 c-16 4
-36 8 -43 11 -22 6 -70 -8 -91 -28 -30 -27 -29 -92 2 -113 51 -33 172 -31 165
3 -3 14 -15 17 -65 18 -46 0 -67 5 -83 19 -29 27 -22 57 20 77 48 23 112 8
143 -34 32 -44 96 -78 147 -78 36 0 48 6 81 38 26 27 40 51 45 79 l6 39 59 -4
c46 -3 59 -1 59 10 0 9 -21 19 -57 28 -52 14 -58 18 -63 45 -6 36 -34 45 -50
16 -17 -32 -53 -27 -67 9 l-11 30 40 0 c54 0 100 30 139 91 18 27 34 49 36 49
2 0 20 -18 40 -41 39 -43 99 -79 132 -79 65 0 46 134 -29 205 l-30 28 40 43
c24 27 40 53 40 68 0 27 -34 66 -57 66 -28 0 -73 -31 -97 -67 l-25 -36 -6 29
c-4 16 -9 36 -11 45 -3 12 11 26 49 47 66 37 117 80 117 97 0 27 -31 45 -77
45 -29 0 -50 5 -57 15 -16 23 -79 29 -133 14 -34 -9 -63 -28 -97 -62 -26 -26
-49 -47 -51 -45 -6 7 -25 47 -25 52 0 3 11 6 24 6 29 0 72 33 91 70 17 33 20
96 5 105 -5 3 -10 15 -10 25 0 11 -13 34 -28 51 -23 26 -37 32 -78 35 -27 2
-63 -2 -79 -9z m355 -256 c0 -5 -7 -12 -16 -15 -24 -9 -14 -50 14 -54 12 -2
22 -9 22 -17 0 -15 -44 -28 -70 -20 -11 3 -29 0 -42 -9 -26 -16 -65 -6 -74 19
-9 21 31 63 81 86 43 20 85 25 85 10z m-302 -103 c2 -14 -4 -35 -12 -45 -9
-10 -21 -26 -28 -35 -7 -10 -24 -19 -38 -20 -22 -3 -25 1 -28 33 -4 48 38 102
77 97 20 -2 27 -9 29 -30z m276 -109 c3 -17 6 -54 6 -81 0 -61 -16 -60 -47 2
-28 54 -30 97 -5 103 34 9 40 6 46 -24z m166 -9 c0 -21 -32 -58 -70 -84 -22
-14 -42 -26 -45 -26 -15 0 0 26 41 70 44 47 74 63 74 40z m-596 -100 c7 -7 5
-20 -6 -43 -26 -48 -30 -80 -16 -100 23 -32 59 2 82 76 8 26 50 19 54 -10 7
-48 -53 -113 -103 -113 -27 0 -62 45 -70 88 -4 23 -10 42 -15 42 -4 0 -10 10
-13 23 -2 12 -8 29 -11 39 -5 11 -2 17 11 20 22 5 73 -8 87 -22z m326 -25 c64
-33 14 -48 -60 -19 -22 9 -40 20 -40 25 0 15 69 10 100 -6z m100 -38 c0 -22
-60 -106 -95 -132 -38 -30 -81 -34 -71 -7 15 38 53 82 89 104 21 13 44 28 50
35 16 16 27 16 27 0z m129 -11 c16 -12 63 -108 56 -114 -6 -6 -47 28 -84 71
-47 53 -27 85 28 43z m-413 -181 c16 -8 37 -15 46 -15 30 0 49 -42 42 -91 -7
-48 -25 -74 -66 -95 -23 -12 -29 -12 -49 5 l-22 18 26 7 c15 3 27 11 27 17 0
19 -20 48 -40 59 -16 8 -23 6 -37 -9 -9 -11 -20 -18 -25 -15 -15 9 -8 69 12
102 22 35 43 40 86 17z m164 -180 c0 -59 -64 -91 -125 -63 -31 14 -32 24 -1
32 14 3 35 19 48 34 29 35 78 34 78 -3z"/>
<path d="M10767 13617 c-8 -21 8 -39 29 -35 27 5 25 42 -2 46 -12 2 -24 -3
-27 -11z"/>
<path d="M9588 13585 c-64 -35 -92 -198 -48 -285 51 -99 180 -121 180 -30 0
18 7 33 19 39 49 27 65 134 31 208 -32 73 -116 104 -182 68z m90 -41 c19 -13
52 -63 52 -79 0 -3 -9 -5 -19 -5 -11 0 -32 -16 -47 -35 -47 -62 -32 -154 23
-140 27 6 30 -7 7 -29 -19 -20 -28 -20 -64 -1 -42 22 -70 82 -70 150 0 63 17
103 56 134 32 25 33 25 62 5z"/>
<path d="M10680 13434 c-41 -18 -100 -72 -100 -92 0 -10 10 -7 34 12 40 30 86
50 86 36 0 -5 -19 -21 -42 -37 -24 -16 -48 -38 -54 -51 l-11 -22 -22 26 c-29
33 -55 28 -59 -12 -4 -38 38 -82 112 -119 72 -36 138 -34 177 4 17 18 29 40
29 56 0 42 -26 91 -58 110 -26 16 -29 21 -21 47 16 57 -6 70 -71 42z m71 -147
c22 -16 28 -39 17 -59 -12 -23 -70 -24 -109 -1 -31 18 -38 33 -16 33 8 0 22 9
32 20 20 22 52 25 76 7z"/>
<path d="M10560 13415 c0 -8 5 -15 10 -15 6 0 10 7 10 15 0 8 -4 15 -10 15 -5
0 -10 -7 -10 -15z"/>
<path d="M8707 13224 c-4 -4 -7 -16 -7 -26 0 -14 6 -19 23 -16 14 2 22 10 22
23 0 20 -25 32 -38 19z"/>
<path d="M8000 13195 c-17 -20 -5 -45 20 -45 11 0 23 7 26 15 6 15 -11 45 -26
45 -4 0 -13 -7 -20 -15z"/>
<path d="M8770 13162 c6 -12 7 -22 3 -21 -22 4 -33 -3 -33 -20 0 -25 21 -32
42 -14 15 14 19 10 44 -38 94 -187 130 -358 164 -789 25 -314 47 -507 66 -584
20 -78 50 -136 71 -136 19 0 16 23 -21 185 -31 133 -40 196 -66 480 -43 458
-90 657 -200 845 -41 70 -92 137 -70 92z"/>
<path d="M8114 13096 c-9 -24 4 -48 23 -44 12 2 18 12 18 28 0 29 -32 41 -41
16z"/>
<path d="M8680 13076 c-27 -33 18 -72 48 -42 13 13 14 20 6 34 -15 23 -38 26
-54 8z"/>
<path d="M8202 13048 c-16 -16 -15 -53 1 -66 18 -14 57 4 57 27 0 47 -30 67
-58 39z"/>
<path d="M8575 13009 c-10 -30 18 -58 43 -43 9 6 17 22 17 35 0 34 -50 41 -60
8z"/>
<path d="M8347 13013 c-4 -3 -7 -17 -7 -30 0 -18 6 -23 24 -23 13 0 27 7 30
16 11 28 -27 57 -47 37z"/>
<path d="M8776 13004 c-4 -10 -1 -21 5 -25 18 -11 40 1 37 20 -4 22 -34 26
-42 5z"/>
<path d="M8466 12973 c-4 -9 0 -23 9 -32 13 -14 17 -14 31 1 9 9 14 24 11 32
-8 21 -43 20 -51 -1z"/>
<path d="M8717 12913 c-15 -14 -7 -62 12 -68 40 -12 76 30 51 60 -13 15 -51
20 -63 8z"/>
<path d="M8277 12873 c-12 -12 -7 -43 7 -43 13 0 26 20 26 41 0 10 -23 12 -33
2z"/>
<path d="M8354 12826 c-3 -8 -4 -25 -2 -38 2 -18 9 -23 33 -23 24 0 31 5 33
23 2 13 -2 30 -8 38 -16 18 -49 18 -56 0z"/>
<path d="M8662 12821 c-22 -13 -10 -45 21 -55 35 -13 52 3 43 38 -7 27 -37 35
-64 17z"/>
<path d="M8480 12775 c0 -31 26 -43 47 -22 21 21 9 47 -22 47 -20 0 -25 -5
-25 -25z"/>
<path d="M8590 12776 c0 -21 5 -26 26 -26 21 0 25 4 22 23 -2 14 -11 23 -25
25 -19 3 -23 -1 -23 -22z"/>
<path d="M7692 11980 c0 -14 2 -19 5 -12 2 6 2 18 0 25 -3 6 -5 1 -5 -13z"/>
<path d="M7682 11915 c0 -16 2 -22 5 -12 2 9 2 23 0 30 -3 6 -5 -1 -5 -18z"/>
<path d="M8241 11050 c-1 -3 6 -27 14 -54 9 -31 15 -90 15 -158 0 -85 3 -108
14 -108 31 0 34 121 5 211 -19 57 -48 122 -48 109z"/>
<path d="M8326 10389 c-3 -8 -14 -70 -25 -139 -103 -637 -87 -1320 55 -2305
105 -731 177 -1109 384 -2015 227 -992 341 -1396 400 -1415 27 -9 58 11 67 43
12 41 8 295 -5 397 -29 214 -72 386 -237 960 -186 647 -251 917 -309 1295 -53
344 -60 444 -61 810 0 351 5 431 45 665 21 123 70 338 76 333 2 -2 11 -69 19
-149 81 -751 196 -1367 535 -2878 223 -996 380 -1751 415 -2000 34 -248 29
-403 -14 -461 -14 -19 -30 -26 -67 -30 -47 -5 -49 -6 -49 -35 0 -40 34 -57
108 -52 46 3 63 9 87 32 54 51 65 107 64 310 -2 244 -13 312 -219 1250 -82
374 -123 553 -285 1225 -301 1250 -415 1803 -504 2445 -21 150 -56 455 -56
486 0 5 -9 9 -20 9 -11 0 -20 -1 -20 -3 0 -1 -14 -49 -30 -107 -40 -138 -85
-370 -107 -550 -25 -207 -25 -766 0 -1000 58 -532 154 -993 357 -1710 114
-400 162 -619 175 -799 3 -42 8 -92 11 -111 4 -24 2 -32 -5 -25 -12 13 -112
390 -201 765 -37 157 -99 418 -138 580 -127 534 -200 890 -291 1431 -150 890
-196 1334 -196 1904 0 352 7 476 41 734 13 102 13 149 0 110z"/>
<path d="M7482 7840 c0 -14 2 -19 5 -12 2 6 2 18 0 25 -3 6 -5 1 -5 -13z"/>
<path d="M7457 7723 c-38 -182 -129 -565 -183 -763 -197 -730 -402 -1282 -675
-1820 -124 -246 -212 -393 -416 -699 -90 -135 -163 -250 -163 -256 0 -16 22
-35 41 -35 19 0 167 194 272 355 226 349 436 775 632 1285 209 545 365 1127
480 1796 37 211 44 294 12 137z"/>

</g>
</svg>
